<?xml version="1.0" encoding="UTF-8"?>
<svg id="Capa_2" data-name="Capa 2" xmlns="http://www.w3.org/2000/svg" viewBox="0 0 412.4 494.69">
  <defs>
    <style>
      .cls-1 {
        fill: #fff;
      }
    </style>
  </defs>
  <g id="Capa_1-2" data-name="Capa 1">
    <path class="cls-1" d="m197.53,494.69c-3.24-.8-6.51-1.45-9.7-2.42-27.96-8.44-45.51-26.76-52.24-55.28-.29-1.25-.62-2.49-1.04-4.15-1.74,0-3.47,0-5.21,0-32.85,0-65.7.14-98.55-.09-12.49-.09-21.96-6.11-27.44-17.35-5.38-11.04-4.19-21.9,2.95-31.91,1.76-2.46,4.07-4.56,6.34-6.59,32.82-29.39,49.02-66.23,49.35-110.14.16-21.74-.22-43.48.19-65.22,1.13-59.05,41-113.1,97.15-131.74,4.55-1.51,5.81-3.58,5.69-8.11-.23-8.52-.39-17.11.51-25.56C167.76,15.35,185.59-.1,206.47,0c20.66.09,38.3,15.53,40.42,36.14.94,9.09.59,18.33.57,27.5,0,3.01.82,4.42,3.83,5.51,54.42,19.76,87.01,58.2,97.45,115.12,1.5,8.17,1.49,16.66,1.63,25.01.39,23.66-.52,47.39.94,70.98,2.31,37.11,18.28,68.23,45.26,93.72,2.11,1.99,4.36,3.83,6.41,5.87,9.1,9.07,12,22.31,6.96,33.83-5.34,12.2-14.96,18.96-28.29,19.06-32.53.27-65.06.09-97.59.1-1.92,0-3.85,0-6.16,0-.57,2.4-1.03,4.71-1.68,6.97-8.6,29.89-28.13,47.91-58.68,53.95-.9.18-1.75.61-2.63.92h-17.39Zm8.57-82.37c0-.08,0-.17,0-.25,20.6,0,41.2-.03,61.81,0,36.22.06,72.44.16,108.65.24,1.61,0,3.23.07,4.83-.07,4.52-.38,7.97-2.36,9.62-6.82,1.66-4.48.31-8.22-2.97-11.37-2.55-2.45-5.31-4.69-7.83-7.18-33.39-32.97-50.13-72.95-50.3-119.85-.07-19.8.09-39.6-.07-59.4-.05-6.42-.28-12.91-1.25-19.25-11.33-73.7-81.72-120.16-153.95-101.77-52.54,13.38-91.28,62.27-92.01,116.44-.3,22.37.14,44.76-.16,67.13-.52,37.97-12.47,72.02-36.49,101.5-6.47,7.94-14.2,14.87-21.42,22.2-3.18,3.23-4.79,6.82-3.21,11.33,1.64,4.69,5.22,6.73,9.95,7.06,1.6.11,3.22.05,4.83.05,56.66,0,113.32,0,169.98,0Z"/>
  </g>
</svg>