<?xml version="1.0" encoding="UTF-8"?>
<svg id="Capa_2" data-name="Capa 2" xmlns="http://www.w3.org/2000/svg" viewBox="0 0 467.39 467.35">
  <defs>
    <style>
      .cls-1 {
        fill: #fff;
      }
    </style>
  </defs>
  <g id="Capa_1-2" data-name="Capa 1">
    <path class="cls-1" d="m197.19,0c7.79,1.17,15.64,2.02,23.34,3.57,39.35,7.95,72.94,26.45,100.06,56.09,36.03,39.38,52.43,85.96,48.81,139.19-2.33,34.27-13.97,65.47-33.98,93.47-2.03,2.84-4.15,5.62-6.52,8.84,1.26,1.33,2.44,2.64,3.69,3.9,42.38,42.39,84.75,84.79,127.17,127.14,6.03,6.02,9.3,12.74,6.73,21.34-3.88,12.98-19.44,18.05-30.22,9.84-1.81-1.38-3.44-3-5.05-4.61-41.97-41.94-83.93-83.88-125.86-125.87-1.27-1.27-2.12-2.97-3.3-4.68-3.11,2.3-5.16,3.8-7.2,5.32-23.57,17.6-49.86,29.14-78.85,33.71-58.52,9.23-110.34-5.77-154.65-45.15-32.8-29.15-52.05-65.99-59.28-109.17C1.22,207.71.69,202.44,0,197.19c0-8.22,0-16.43,0-24.65.74-5.4,1.34-10.82,2.25-16.2,7.47-44.21,27.94-81.27,61.68-110.82C88.57,23.95,117.1,10,149.23,3.61c7.71-1.53,15.54-2.42,23.31-3.61,8.22,0,16.43,0,24.65,0Zm133.92,184.79c-.72-80.92-66.18-146.12-146.32-145.74-80.72.38-146.16,66.08-145.75,146.22.41,80.75,65.38,145.97,146.22,145.7,82.09-.27,145.38-66.19,145.85-146.17Z"/>
  </g>
</svg>