<?xml version="1.0" encoding="UTF-8"?>
<svg id="Capa_2" data-name="Capa 2" xmlns="http://www.w3.org/2000/svg" viewBox="0 0 438.24 316.65">
  <defs>
    <style>
      .cls-1 {
        fill: #fff;
      }
    </style>
  </defs>
  <g id="Capa_1-2" data-name="Capa 1">
    <g>
      <path class="cls-1" d="m0,154.37c3.89-11.01,11.93-14.57,23.22-14.56,131.33.18,262.66.12,393.99.12,10.65,0,17.63,4.56,20.17,13.11,3.36,11.29-4.54,22.63-16.39,23.47-1.7.12-3.42.05-5.13.05-131.05,0-262.09-.07-393.14.12C11.49,176.69,3.79,172.84,0,162.08v-7.7Z"/>
      <path class="cls-1" d="m0,14.01c2.09-3.14,3.63-6.94,6.41-9.25C9.2,2.46,13.16,1.5,16.72.27c1.41-.49,3.11-.16,4.68-.16,131.77,0,263.55-.01,395.32.04,3.1,0,6.35.14,9.26,1.06,8.19,2.59,13.23,11.02,12.09,19.42-1.18,8.68-8.31,15.29-17.07,15.77-1.85.1-3.71.07-5.56.07-130.63,0-261.27-.09-391.9.16C12.23,36.66,4.24,33.32,0,22.57,0,19.72,0,16.86,0,14.01Z"/>
      <path class="cls-1" d="m0,294.74c3.57-10.92,11.18-14.8,22.5-14.78,131.89.2,263.78.13,395.67.13,12.13,0,20.45,7.92,20,18.96-.35,8.86-7.24,16.3-16.05,17.21-2.4.25-4.84.24-7.26.24-130.46.01-260.93-.07-391.39.15C12.18,316.67,4.15,313.26,0,302.44v-7.7Z"/>
    </g>
  </g>
</svg>