<?xml version="1.0" encoding="UTF-8"?>
<svg id="Capa_2" data-name="Capa 2" xmlns="http://www.w3.org/2000/svg" viewBox="0 0 447.07 580.87">
  <defs>
    <style>
      .cls-1 {
        fill: #fff;
      }
    </style>
  </defs>
  <g id="Capa_1-2" data-name="Capa 1">
    <g>
      <g>
        <path class="cls-1" d="m114.01,362.99c-7.49,0-14.24.41-20.93-.07-37-2.64-67.39-26.46-79.41-61.42-13.18-38.36.83-80.68,33.35-104.05,80.25-57.68,160.41-115.49,241.03-172.66,21.66-15.36,46.53-19.49,72.6-13.25,25.81,6.18,45.38,20.87,58.77,43.87,19.52,33.54,14.45,79.77-13.11,107.09-10.34,10.25-22.72,18.5-34.44,27.29-11.62,8.71-23.58,16.96-35.38,25.43-1.06.76-2.04,1.63-3.94,3.16,1.98,0,2.99.09,3.98-.01,24.7-2.62,46.92,3.53,66.62,18.73,23.91,18.45,35.37,43.29,35.18,72.96-.19,30.24-12.98,55.17-37.53,72.9-79.98,57.77-160.24,115.15-240.48,172.56-31.73,22.7-76,21.97-107.23-1.36-29.61-22.13-40.66-52.24-35.83-87.94,3.34-24.64,16.28-44.65,36.35-59.51,18.78-13.9,37.96-27.28,56.95-40.9,1.02-.73,1.95-1.59,3.45-2.83Zm36.73-14.91c-1.61,1.28-2.72,2.26-3.92,3.12-29.03,20.82-58.22,41.42-87.06,62.49-27.63,20.19-39.81,52.57-32.54,85.16,5.97,26.76,21.99,46.13,47.31,57.06,27.94,12.06,54.69,8.66,80.01-7.65,5.75-3.7,11.14-7.95,16.7-11.93,74.74-53.6,149.75-106.82,224.08-160.98,27.6-20.11,38.54-48.51,32.11-82.38-5.49-28.94-23.04-48.84-49.91-60.12-16.56-6.95-34.02-8.32-51.43-3.03-8.53,2.59-16.72,6.26-25.43,9.58-1.28-1.87-2.83-4.13-4.44-6.47,1.72-1.32,2.89-2.26,4.1-3.13,26.31-18.88,52.77-37.56,78.86-56.73,8.55-6.28,17.34-12.86,24.03-20.94,31.47-38,20.92-92.12-14.72-117.91-27.93-20.22-68.16-21.45-96.17-1.37-76.51,54.85-153,109.74-229.52,164.57-10.32,7.39-20.37,14.88-28.25,25.18-20.94,27.41-22.19,67.68-2.45,96.1,20.17,29.04,57.27,42.24,90.99,32,7.74-2.35,15.1-5.94,23.08-9.14,1.21,1.73,2.71,3.88,4.55,6.53Z"/>
        <path class="cls-1" d="m337.77,8.75c-17.7,0-34.5,5.25-49.73,16.05-80.61,57.17-160.78,114.97-241.03,172.66C14.5,220.83.49,263.14,13.67,301.5c12.01,34.96,42.41,58.78,79.41,61.42,2.46.18,4.94.23,7.45.23,4.31,0,8.75-.16,13.48-.16-1.5,1.24-2.43,2.09-3.45,2.83-18.99,13.62-38.16,27-56.95,40.9-20.07,14.85-33.01,34.87-36.35,59.51-4.84,35.7,6.21,65.81,35.83,87.94,15.97,11.94,35.35,17.96,54.72,17.96s37.01-5.5,52.51-16.59c80.23-57.42,160.5-114.79,240.47-172.56,24.55-17.73,37.34-42.66,37.53-72.9.19-29.67-11.27-54.51-35.18-72.96-16.76-12.94-35.35-19.32-55.75-19.32-3.57,0-7.19.2-10.87.59-.36.04-.72.05-1.13.05-.72,0-1.58-.04-2.84-.04,1.9-1.53,2.88-2.4,3.94-3.16,11.8-8.47,23.77-16.71,35.38-25.43,11.72-8.79,24.1-17.04,34.44-27.29,27.56-27.31,32.64-73.55,13.11-107.09-13.39-23.01-32.96-37.7-58.77-43.87-7.75-1.85-15.39-2.79-22.87-2.79h0ZM99.88,354.13c-26.45,0-52.17-12.99-67.76-35.44-19.73-28.42-18.49-68.7,2.45-96.1,7.87-10.3,17.93-17.78,28.25-25.18,76.52-54.84,153.01-109.72,229.52-164.57,13.55-9.72,29.97-14.44,46.46-14.44,17.6,0,35.29,5.38,49.71,15.81,35.63,25.8,46.19,79.91,14.72,117.91-6.69,8.08-15.48,14.66-24.03,20.94-26.1,19.17-52.55,37.85-78.86,56.73-1.21.87-2.38,1.81-4.1,3.13,1.6,2.34,3.16,4.6,4.44,6.47,8.71-3.32,16.91-6.99,25.43-9.58,7.16-2.17,14.32-3.22,21.42-3.22,10.19,0,20.26,2.16,30.01,6.25,26.87,11.28,44.41,31.18,49.91,60.12,6.43,33.87-4.51,62.27-32.11,82.38-74.33,54.16-149.34,107.39-224.08,160.98-5.56,3.99-10.96,8.23-16.7,11.93-15.1,9.73-30.72,14.87-46.79,14.87-10.87,0-21.95-2.35-33.22-7.22-25.32-10.93-41.34-30.3-47.31-57.06-7.27-32.59,4.91-64.97,32.54-85.16,28.84-21.07,58.03-41.67,87.06-62.49,1.2-.86,2.32-1.84,3.92-3.12-1.84-2.64-3.35-4.8-4.55-6.53-7.98,3.2-15.34,6.78-23.08,9.14-7.65,2.32-15.47,3.44-23.23,3.44h0Z"/>
      </g>
      <path class="cls-1" d="m308.57,290.54c-41.4,23.9-81.83,47.23-122.88,70.93v-141.86c40.9,23.61,81.44,47.01,122.88,70.93Z"/>
    </g>
  </g>
</svg>