<?xml version="1.0" encoding="UTF-8"?>
<svg id="Capa_2" data-name="Capa 2" xmlns="http://www.w3.org/2000/svg" viewBox="0 0 609.05 383.92">
  <defs>
    <style>
      .cls-1 {
        fill: #fff;
      }
    </style>
  </defs>
  <g id="Capa_1-2" data-name="Capa 1">
    <g>
      <path class="cls-1" d="m609.05,343.47c-7.25,10.03-12.12,11.05-23.49,4.84-42.92-23.42-85.83-46.86-128.76-70.27-1.82-.99-3.74-1.82-6.61-3.2,0,3.46.04,5.96,0,8.47-.28,15.65.97,31.51-1.19,46.9-4.42,31.51-32.15,53.67-65.03,53.69-105.83.06-211.67.03-317.5-.02-4.14,0-8.31-.38-12.4-1.03C24.01,378.11.88,351.95.21,321.5c-.4-18.03-.12-36.07-.13-54.11,0-66.41-.02-132.81,0-199.22C.1,27.81,27.62.08,67.99.05c104.84-.08,209.68-.07,314.53,0,34.25.02,62.33,22.18,66.56,54.12,2.07,15.61.86,31.65,1.12,47.5.04,2.5,0,5.01,0,8.47,3.01-1.51,5.1-2.47,7.11-3.56,42.74-23.33,85.48-46.68,128.22-70.02,11.4-6.22,15.97-5.29,23.53,4.75v302.16Zm-383.92,14.55c51.93,0,103.86.03,155.79-.05,4.53,0,9.21-.04,13.56-1.11,19.11-4.7,30.02-19.69,30.03-40.96.04-82.47.04-164.94,0-247.41-.01-26.48-16.17-42.6-42.64-42.6-104.46-.02-208.91-.02-313.37,0-26.64,0-42.5,15.85-42.51,42.55-.04,82.47-.03,164.94.03,247.41,0,4.13.16,8.39,1.14,12.37,4.68,18.99,19.31,29.75,40.39,29.77,52.53.06,105.05.02,157.58.02ZM582.95,67.76c-1.56.63-2.31.85-2.98,1.22-42.05,22.94-84.11,45.85-126.05,69-1.85,1.02-3.55,4.22-3.56,6.42-.23,31.91-.1,63.82-.24,95.73-.02,3.68,1.21,5.59,4.44,7.35,41.41,22.46,82.73,45.08,124.09,67.64,1.25.68,2.63,1.14,4.29,1.84V67.76Z"/>
      <path class="cls-1" d="m226.67,267.58c-3.44,0-6.34-1.23-8.71-3.71-2.37-2.47-3.55-5.43-3.55-8.87v-50.63h-50.63c-3.44,0-6.34-1.23-8.71-3.71-2.37-2.47-3.55-5.43-3.55-8.87,0-3.65,1.18-6.66,3.55-9.03s5.27-3.55,8.71-3.55h50.63v-50.63c0-3.44,1.18-6.34,3.55-8.71s5.27-3.55,8.71-3.55c3.65,0,6.66,1.18,9.03,3.55,2.36,2.37,3.55,5.27,3.55,8.71v50.63h50.63c3.44,0,6.39,1.24,8.87,3.71,2.47,2.47,3.71,5.43,3.71,8.87s-1.24,6.4-3.71,8.87c-2.47,2.47-5.43,3.71-8.87,3.71h-50.63v50.63c0,3.44-1.18,6.4-3.55,8.87-2.37,2.47-5.38,3.71-9.03,3.71Z"/>
    </g>
  </g>
</svg>